<?xml version="1.0" encoding="UTF-8" standalone="no"?>
<svg
   xmlns:dc="http://purl.org/dc/elements/1.1/"
   xmlns:cc="http://creativecommons.org/ns#"
   xmlns:rdf="http://www.w3.org/1999/02/22-rdf-syntax-ns#"
   xmlns:svg="http://www.w3.org/2000/svg"
   xmlns="http://www.w3.org/2000/svg"
   id="svg8"
   version="1.1"
   viewBox="0 0 100 100"
   height="100mm"
   width="100mm">
  <defs
     id="defs2" />
  <metadata
     id="metadata5">
    <rdf:RDF>
      <cc:Work
         rdf:about="">
        <dc:format>image/svg+xml</dc:format>
        <dc:type
           rdf:resource="http://purl.org/dc/dcmitype/StillImage" />
        <dc:title></dc:title>
      </cc:Work>
    </rdf:RDF>
  </metadata>
  <g
     transform="translate(0,-197)"
     id="layer1">
    <path
       d="m 61.972394,213.13157 c -0.960746,0 -2.064582,0.68802 -3.311505,2.06412 -2.085007,2.2867 -4.415326,5.11984 -6.990929,8.49932 -4.435772,5.82812 -7.665515,10.29025 -9.689205,13.38642 -2.371184,3.62232 -3.883854,5.90907 -4.537971,6.86012 0.511049,-3.09617 1.655756,-6.87022 3.434146,-11.32229 2.064571,-4.93768 4.323339,-9.3897 6.776297,-13.35606 0.858542,-1.39631 1.287816,-2.398 1.287816,-3.00513 0,-0.54629 -0.235084,-1.032 -0.705227,-1.45699 -0.388405,-0.36419 -0.786992,-0.54628 -1.195825,-0.54628 -0.654128,0 -1.481995,0.47579 -2.483615,1.42668 -0.960746,0.93085 -2.69826,2.9545 -5.212558,6.07095 -6.009729,7.46725 -11.212064,15.44038 -15.606948,23.91949 -0.858548,1.65941 -2.095248,4.38118 -3.710104,8.16544 -0.756327,1.72008 -1.134502,2.77235 -1.134502,3.15686 0,0.26316 0.08177,0.48578 0.24529,0.66782 0.204407,0.26315 0.459902,0.39473 0.766549,0.39473 1.206041,0 2.269003,-1.0928 3.18885,-3.27833 1.839728,-4.29014 3.403486,-7.7202 4.691284,-10.29025 2.7187,-5.3424 5.805347,-10.55327 9.259932,-15.63263 1.901051,-2.75221 3.155361,-4.20884 5.219932,-6.29323 -6.071064,10.867 -8.378118,17.86846 -8.378118,22.92756 0,0.5868 0.122586,1.10289 0.367934,1.54815 0.367934,0.66775 0.940299,1.00168 1.717073,1.00168 0.776767,0 1.594415,-0.37417 2.452957,-1.12316 0.878972,-0.76897 1.993032,-2.23611 3.342147,-4.40138 6.132404,-9.95636 10.942595,-16.52397 15.991609,-21.86642 -9.648318,16.77607 -14.472465,28.02753 -14.472465,33.75444 0,0.91064 0.933897,0.53689 1.240449,1.04305 0.367934,0.66782 0.83809,1.00169 1.410443,1.00169 0.490579,0 0.930082,-0.23261 1.318475,-0.69812 0.384844,-0.43292 -0.324442,-3.64024 0.0031,-2.66821 0.0013,-0.006 0.0015,-0.0176 0.0031,-0.0235 0.0031,-0.0118 0.0066,-0.0235 0.0095,-0.0353 0.0031,-0.0118 0.0031,-0.0176 0.0066,-0.0235 -0.02908,0.0294 -0.035,-0.0617 0.01542,-0.44642 0.158304,-0.88332 0.93897,-3.90503 1.49938,-5.72791 1.226475,-3.90562 3.158185,-8.63083 5.795122,-14.17565 0.960746,-2.02365 2.790239,-5.40313 5.488493,-10.13845 1.512659,-2.63074 2.350778,-4.09788 2.514297,-4.40145 0.838102,-1.47725 1.257141,-2.55989 1.257141,-3.24797 0,-0.46522 -0.163526,-0.8499 -0.490579,-1.15347 -0.367934,-0.38475 -0.827884,-0.57683 -1.379796,-0.57683 z m -14.331426,38.99059 c -5.04e-4,0.005 -0.0016,0.0118 -0.0031,0.0118 0.0013,-1.8e-4 0.0031,4.7e-4 0.0031,0 3.26e-4,-0.005 -2.55e-4,-0.006 0,-0.0118 z m -0.236093,0.50105 c -0.0066,0.0235 -0.01246,0.0294 -0.01839,0.0529 0.0031,-0.006 0.0066,-0.0176 0.0095,-0.0235 0.0031,-0.0117 0.0066,-0.0176 0.0095,-0.0294 z m 0.156347,0.6496 c 5.82e-4,0.002 0.0031,0.005 0.0031,0.006 5.64e-4,-5.3e-4 0.0066,0.003 0.0066,0.003 v -0.003 c 8.48e-4,-0.002 0.0016,-0.005 0.0031,-0.006 -0.0047,2.4e-4 -0.0077,2.4e-4 -0.01246,0 z"
       style="font-style:normal;font-variant:normal;font-weight:normal;font-stretch:normal;font-size:10.58333302px;line-height:1.25;font-family:'Freestyle Script';-inkscape-font-specification:'Freestyle Script';letter-spacing:0px;word-spacing:0px;fill:#000000;fill-opacity:1;stroke:none;stroke-width:1.56200802"
       id="text3715" />
    <path
       id="text3719"
       d="m 56.09755,238.61438 c -2.147741,0.12218 -3.834149,1.64054 -5.357773,2.98968 -2.68365,2.54926 -4.872077,5.67558 -6.089594,9.16825 -0.653737,1.93812 -0.873607,4.34729 0.548371,6.01333 1.175732,1.34995 3.164653,1.60595 4.822729,1.1335 2.679248,-0.73354 4.766022,-2.70045 6.625373,-4.6522 1.161612,-1.24224 2.258762,-2.58221 3.063897,-4.07204 0.443942,-1.07852 -0.995557,-1.97688 -1.645776,-0.94412 -0.786492,0.84051 -1.380521,1.84056 -2.225789,2.6319 -1.597958,1.69025 -3.298239,3.4626 -5.550848,4.26123 -0.967564,0.33952 -2.26368,0.19384 -2.77267,-0.80321 -0.453436,-1.01573 -0.218233,-2.19335 0.185716,-3.18676 0.99252,-2.68941 2.589784,-5.14555 4.511359,-7.27477 0.894933,-0.92368 1.90832,-1.85993 3.177167,-2.21754 1.349981,0.17269 0.214851,1.88772 -0.281899,2.49157 -0.501081,0.80627 -1.773422,1.2756 -1.541442,2.39171 0.129706,1.04698 1.398196,0.80885 1.980715,0.29781 1.135503,-0.90723 1.974067,-2.16333 2.535746,-3.48697 0.482094,-1.25005 0.712846,-2.80149 -0.05103,-3.98562 -0.45925,-0.56157 -1.228274,-0.77808 -1.934071,-0.75575 z"
       style="font-style:normal;font-variant:normal;font-weight:normal;font-stretch:normal;font-size:10.58333302px;line-height:1.25;font-family:'Freestyle Script';-inkscape-font-specification:'Freestyle Script';letter-spacing:0px;word-spacing:0px;fill:#000000;fill-opacity:1;stroke:none;stroke-width:1.56200802" />
    <text
       transform="scale(1.0050491,0.99497629)"
       id="text3723"
       y="278.87634"
       x="50.889507"
       style="font-style:normal;font-variant:normal;font-weight:normal;font-stretch:normal;font-size:62.48032379px;line-height:1.25;font-family:'Freestyle Script';-inkscape-font-specification:'Freestyle Script';letter-spacing:0px;word-spacing:0px;fill:#000000;fill-opacity:1;stroke:none;stroke-width:1.56200802"
       xml:space="preserve"><tspan
         style="stroke-width:1.56200802"
         y="278.87634"
         x="50.889507"
         id="tspan3721">R</tspan></text>
    <path
       transform="matrix(8.1736825,0,0,7.9485025,-437.31015,-604.77021)"
       id="path3737"
       d="m 60.396636,107.98599 c 0.04809,-0.0562 0.09546,-0.1131 0.143819,-0.16827 0.178816,-0.20403 0.352402,-0.40443 0.492154,-0.57552 0.07425,-0.0909 0.138321,-0.17264 0.196217,-0.24317 0.01193,-0.0145 0.02324,-0.0282 0.03414,-0.0412 0.0807,-0.0961 0.133117,-0.14811 0.178771,-0.185 0.120305,-0.0972 0.261545,-0.13476 0.234437,-0.1261 0.02609,-0.008 0.01134,-0.004 0.127989,-0.0545 l -0.156582,-0.36038 c -0.114917,0.0499 -0.120949,0.0542 -0.139574,0.0659 0.07838,-0.0495 -0.170174,0.0951 -0.297738,0.22172 -0.06134,0.0609 -0.120167,0.133 -0.199276,0.24171 -0.01065,0.0146 -0.02154,0.0297 -0.0329,0.0456 -0.05557,0.0775 -0.113257,0.1595 -0.181472,0.25044 -0.12852,0.17132 -0.293021,0.37215 -0.466418,0.58111 -0.04667,0.0563 -0.09545,0.11174 -0.143539,0.16794 z"
       style="fill:#000000;fill-rule:nonzero;stroke:none;stroke-width:0.26458332px;stroke-linecap:butt;stroke-linejoin:miter;stroke-opacity:1" />
    <ellipse
       cx="50.01421"
       cy="247.02277"
       rx="48.274261"
       ry="48.276134"
       id="path3917"
       style="opacity:1;fill:none;fill-opacity:1;stroke:#000006;stroke-width:3.44773316;stroke-miterlimit:4;stroke-dasharray:none;stroke-opacity:1" />
    <path
       transform="matrix(5.9334609,0,0,5.8739949,-300.56295,-383.12302)"
       id="path4736"
       d="m 54.177602,108.10027 c -0.05049,0.11584 -0.09973,0.22981 -0.150608,0.34088 -0.08924,0.19483 -0.179898,0.3761 -0.27768,0.53681 -0.155583,0.25572 -0.3164,0.43778 -0.494614,0.54307 -0.176368,0.1042 -0.397645,0.14967 -0.630549,0.13924 -0.02191,-9.8e-4 -0.04387,-0.002 -0.06582,-0.004 -0.227244,-0.0203 -0.429367,-0.0943 -0.580908,-0.18787 -0.19729,-0.12181 -0.334159,-0.29202 -0.432466,-0.46907 -0.128379,-0.23121 -0.199163,-0.48974 -0.240514,-0.70559 -0.08986,-0.46905 -0.09206,-1.2233 -0.08991,-1.16282 -0.0047,-0.13209 -0.01358,-0.0712 -0.0213,0.0324 -0.0073,0.0973 -0.01099,0.21754 -0.01087,0.17725 1.73e-4,-0.0578 0.0022,-0.22194 0.03557,-0.80306 l -0.30903,-0.0178 c -0.03498,0.60888 -0.03374,0.73105 -0.03653,0.81514 -0.0016,0.0478 -8.09e-4,-0.0888 -0.0013,-0.18254 -5e-4,-0.094 -0.0032,-0.18146 -0.01893,-0.0347 1.34e-4,-0.001 -0.07177,0.64301 0.01098,1.24773 0.03291,0.24051 0.09956,0.55713 0.247898,0.85903 0.114401,0.23284 0.292788,0.48866 0.577783,0.68356 0.214826,0.14691 0.493592,0.26072 0.806716,0.30169 0.03066,0.004 0.06147,0.007 0.09239,0.01 0.324029,0.0256 0.666751,-0.0356 0.959014,-0.21479 0.290438,-0.17811 0.502151,-0.45563 0.671739,-0.74778 0.109001,-0.18777 0.205913,-0.3911 0.296997,-0.59336 0.05212,-0.11572 0.103746,-0.2332 0.153936,-0.34836 z"
       style="fill:#000000;fill-rule:nonzero;stroke:none;stroke-width:0.26458332px;stroke-linecap:butt;stroke-linejoin:miter;stroke-opacity:1" />
    <path
       transform="matrix(5.9334609,0,0,5.8739949,-300.56295,-383.12302)"
       id="path4744"
       d="m 61.909204,112.24154 c 0.03793,0.0629 0.07601,0.12733 0.116521,0.19181 0.0564,0.0898 0.114945,0.18239 0.178864,0.27742 0.112356,0.16704 0.258719,0.3677 0.537226,0.53272 0.26666,0.15799 0.645578,0.27812 1.065675,0.26705 0.0028,-7e-5 0.0056,-1.5e-4 0.0084,-2.3e-4 0.521875,-0.0158 0.961154,-0.2157 1.285317,-0.50357 0.218382,-0.19393 0.395488,-0.43774 0.516835,-0.6195 0.305816,-0.45806 0.590134,-1.02735 0.562335,-0.96883 0.04073,-0.0858 -0.02826,0.0118 -0.118135,0.15019 -0.251811,0.3878 -0.369976,0.59027 -0.04852,0.064 l -0.223628,-0.1366 c -0.457725,0.7494 -0.06119,0.0945 0.03488,-0.0725 0.08208,-0.1427 0.141962,-0.25168 0.08168,-0.17475 -0.05991,0.0765 -0.233084,0.38296 -0.623974,0.90083 -0.126863,0.16807 -0.290699,0.36571 -0.474034,0.51057 -0.261051,0.20626 -0.602276,0.33683 -0.994968,0.32489 -0.0021,-7e-5 -0.0042,-1.4e-4 -0.0063,-2.1e-4 -0.318739,-0.011 -0.59741,-0.11015 -0.779904,-0.22014 -0.173179,-0.10438 -0.267213,-0.22235 -0.365606,-0.36509 -0.05877,-0.0853 -0.113098,-0.17014 -0.165361,-0.25657 -0.04545,-0.0752 -0.06816,-0.11186 -0.113603,-0.18702 z"
       style="fill:#000000;fill-rule:nonzero;stroke:none;stroke-width:0.26458332px;stroke-linecap:butt;stroke-linejoin:miter;stroke-opacity:1" />
    <path
       id="path4750"
       d="m 47.094312,293.44436 c -9.776676,-0.60597 -19.032258,-4.29055 -26.835388,-10.6831 -1.259075,-1.03147 -4.578602,-4.31644 -5.632581,-5.57401 -2.607062,-3.11046 -4.6923235,-6.30896 -6.3939159,-9.80734 -0.7031686,-1.44571 -1.9553839,-4.41178 -1.9553839,-4.6317 0,-0.0529 0.3201102,0.077 0.7113685,0.289 2.891619,1.56565 6.5253953,1.75903 9.2813633,0.494 1.10792,-0.50868 1.885221,-1.07705 2.844727,-2.08057 1.522229,-1.59202 2.851259,-3.9324 4.853565,-8.54707 2.57428,-5.93285 4.398344,-9.63335 7.008717,-14.21871 3.252634,-5.71352 6.665976,-10.8525 9.298238,-13.99902 0.986205,-1.17891 2.22551,-2.54027 2.271257,-2.49504 0.01958,0.0176 -0.365679,0.77426 -0.855748,1.67785 -2.510797,4.62912 -4.831225,9.68868 -6.12151,13.3476 -1.336684,3.79048 -2.018362,7.77587 -1.583391,9.25712 0.544099,1.853 2.436225,2.12427 4.296876,0.61618 1.085598,-0.87993 2.063094,-2.21914 4.795673,-6.57035 3.199238,-5.09423 6.412973,-9.76799 9.420733,-13.70063 2.060394,-2.69393 5.345912,-6.57829 5.464676,-6.46069 0.0267,0.0235 -0.284153,0.62822 -0.690299,1.33786 -2.402594,4.19809 -5.402588,9.85792 -7.171139,13.52922 -6.080546,12.62251 -7.493469,19.36827 -4.5899,21.91359 1.912853,1.67685 5.020699,1.27953 8.133309,-1.0397 0.922001,-0.68702 2.736079,-2.42061 3.675287,-3.51218 0.392499,-0.45641 1.332477,-1.53317 2.088791,-2.39324 0.756309,-0.86013 2.127224,-2.45985 3.046471,-3.55506 0.919241,-1.0952 1.911084,-2.19875 2.204085,-2.45228 0.442933,-0.38357 1.824693,-1.38456 2.0181,-1.38456 0.214376,0 -2.658629,5.71328 -4.506552,8.86369 -1.514748,2.58226 -1.735395,3.04355 -1.919938,2.98534 -0.11321,-0.0352 -0.506301,-0.28195 -0.813595,-0.31015 -0.702214,-0.064 -1.136466,0.1721 -1.527208,0.83 -0.225056,0.37886 -0.268549,0.5639 -0.266472,1.13285 0.0013,0.37418 0.08319,0.99588 0.181742,1.38197 l 0.17925,0.70201 -0.996917,1.77494 c -2.382611,4.24215 -5.294628,10.47533 -6.39093,13.67995 -0.745148,2.1782 -0.718952,2.79843 0.145192,3.43635 0.353871,0.26139 1.424143,0.2749 1.899193,0.0235 0.422107,-0.22263 0.6173,-0.62705 1.626979,-3.36903 0.788622,-2.14166 1.193842,-3.14717 2.074723,-5.1482 0.522679,-1.18725 3.314035,-7.66756 3.381901,-7.15764 0.0047,0.0294 0.472719,1.33075 0.980683,2.51947 2.038648,4.77057 3.375321,7.48271 5.48237,11.12394 2.635477,4.5544 3.76144,5.90971 5.824985,7.01143 1.634342,0.87259 3.150133,1.26884 5.178315,1.35373 l 1.41802,0.0593 -1.074609,0.79093 c -8.766967,6.45299 -19.578611,9.63252 -30.461078,8.95808 z"
       style="opacity:1;fill:#44aa00;fill-opacity:1;stroke:#000006;stroke-width:0.21548332;stroke-miterlimit:4;stroke-dasharray:none;stroke-opacity:1" />
  </g>
</svg>
